HIERARCHY
ROOT SimulationBone
{
	OFFSET 0.000000 0.000000 0.000000
	CHANNELS 6 Xposition Yposition Zposition Zrotation Yrotation Xrotation 
	JOINT Hips
	{
		OFFSET 0.000000 0.000000 0.000000
		CHANNELS 6 Xposition Yposition Zposition Zrotation Yrotation Xrotation 
		JOINT RightUpLeg
		{
			OFFSET 0.103462 1.857827 10.548504
			CHANNELS 3 Zrotation Yrotation Xrotation
			JOINT RightLeg
			{
				OFFSET 43.500000 -0.000031 0.000000
				CHANNELS 3 Zrotation Yrotation Xrotation
				JOINT RightFoot
				{
					OFFSET 42.372192 0.000015 0.000000
					CHANNELS 3 Zrotation Yrotation Xrotation
					JOINT RightToe
					{
						OFFSET 17.300001 0.000000 -0.000009
						CHANNELS 3 Zrotation Yrotation Xrotation
						End Site
						{
							OFFSET 0.000000 0.000000 0.000000
						}
					}
				}
			}
		}
		JOINT LeftUpLeg
		{
			OFFSET 0.103456 1.857828 -10.548508
			CHANNELS 3 Zrotation Yrotation Xrotation
			JOINT LeftLeg
			{
				OFFSET 43.500046 -0.000015 0.000008
				CHANNELS 3 Zrotation Yrotation Xrotation
				JOINT LeftFoot
				{
					OFFSET 42.372261 -0.000015 0.000002
					CHANNELS 3 Zrotation Yrotation Xrotation
					JOINT LeftToe
					{
						OFFSET 17.299999 -0.000003 0.000011
						CHANNELS 3 Zrotation Yrotation Xrotation
						End Site
						{
							OFFSET 0.000000 0.000000 0.000000
						}
					}
				}
			}
		}
		JOINT Spine
		{
			OFFSET 6.901966 -2.603728 -0.000009
			CHANNELS 3 Zrotation Yrotation Xrotation
			JOINT Spine1
			{
				OFFSET 12.588099 0.000000 0.000013
				CHANNELS 3 Zrotation Yrotation Xrotation
				JOINT Spine2
				{
					OFFSET 12.343203 0.000005 -0.000004
					CHANNELS 3 Zrotation Yrotation Xrotation
					JOINT Neck
					{
						OFFSET 25.832897 -0.000004 0.000004
						CHANNELS 3 Zrotation Yrotation Xrotation
						JOINT Head
						{
							OFFSET 11.766615 0.000003 -0.000003
							CHANNELS 3 Zrotation Yrotation Xrotation
							End Site
							{
								OFFSET 0.000000 0.000000 0.000000
							}
						}
					}
					JOINT RightShoulder
					{
						OFFSET 19.745903 -1.480370 6.000102
						CHANNELS 3 Zrotation Yrotation Xrotation
						JOINT RightArm
						{
							OFFSET 11.284127 -0.000006 -0.000019
							CHANNELS 3 Zrotation Yrotation Xrotation
							JOINT RightForeArm
							{
								OFFSET 33.000042 0.000001 0.000035
								CHANNELS 3 Zrotation Yrotation Xrotation
								JOINT RightHand
								{
									OFFSET 25.200005 0.000015 0.000003
									CHANNELS 3 Zrotation Yrotation Xrotation
									End Site
									{
										OFFSET 0.000000 0.000000 0.000000
									}
								}
							}
						}
					}
					JOINT LeftShoulder
					{
						OFFSET 19.746101 -1.480375 -6.000084
						CHANNELS 3 Zrotation Yrotation Xrotation
						JOINT LeftArm
						{
							OFFSET 11.284132 -0.000016 -0.000012
							CHANNELS 3 Zrotation Yrotation Xrotation
							JOINT LeftForeArm
							{
								OFFSET 33.000092 0.000018 0.000010
								CHANNELS 3 Zrotation Yrotation Xrotation
								JOINT LeftHand
								{
									OFFSET 25.199774 0.000137 0.000425
									CHANNELS 3 Zrotation Yrotation Xrotation
									End Site
									{
										OFFSET 0.000000 0.000000 0.000000
									}
								}
							}
						}
					}
				}
			}
		}
	}
}
MOTION
Frames: 7
Frame Time: 0.033333
329.753392 0.000000 -538.346905 0.000000 116.512671 0.000000 -6.704677 83.156120 -0.205436 91.196105 1.025602 174.771231 156.325504 5.683707 -168.867247 -56.314565 -3.730603 10.778179 92.083893 -5.901192 8.884030 21.454560 0.003105 0.000019 138.031033 -4.359298 160.262616 -39.664005 1.550766 -11.770351 70.072946 12.085353 10.160021 21.454548 -0.003095 -0.000001 13.273901 -0.275421 -1.421897 16.539359 -0.344446 -2.868466 16.221692 -0.361893 -2.866353 14.712496 3.389220 29.278972 -25.292068 -21.687109 40.637928 -174.598213 -73.413913 -6.949792 -17.617191 60.278161 -0.890960 -65.476809 -19.972323 2.688860 -3.835929 -19.794459 27.413987 165.949418 80.364115 -12.683523 6.018069 -59.314292 -52.908544 -48.016845 15.534430 -1.723014 0.956619 8.484685 -33.704654 
329.417940 0.000000 -540.423983 0.000000 121.475004 0.000000 -6.015344 82.938843 -0.026043 92.423629 1.292530 178.077498 159.012364 6.238905 -164.643841 -56.671227 -3.845015 12.958552 92.975889 -7.145719 10.860996 21.454558 0.003094 0.000018 141.352664 -4.277496 153.987352 -31.747850 1.526372 -14.169113 68.777751 13.921560 9.947623 21.454553 -0.003092 0.000000 13.307238 0.174603 -1.899500 16.591658 0.620144 -3.754160 16.274297 0.597346 -3.757839 15.712353 4.030032 30.734540 -24.533473 -22.580197 42.352381 -174.889330 -73.833997 -6.654989 -19.066499 60.000084 0.120318 -64.532624 -20.224443 2.668223 -3.692226 -19.769971 27.119893 171.866602 79.927406 -6.696665 11.049158 -60.940546 -58.162933 -47.376361 15.030803 -1.669829 0.325445 7.569076 -35.995479 
329.104904 0.000000 -542.482301 0.000000 126.369172 0.000000 -5.314466 82.702591 0.214983 93.643793 1.573696 -177.784331 161.449935 6.201294 -160.770550 -57.067576 -3.441004 15.553002 93.858499 -8.728027 12.714737 21.454557 0.003106 0.000018 144.274537 -3.700605 148.077326 -28.754366 2.921205 -14.239052 70.762870 13.119812 8.303480 21.454555 -0.003092 0.000000 13.278853 0.668537 -2.335048 16.513389 1.663882 -4.550856 16.196259 1.636264 -4.560808 16.668120 5.058274 31.977580 -23.339696 -23.350339 43.652927 -175.727817 -74.489510 -5.802088 -21.053160 59.629095 0.935536 -63.538559 -20.497780 2.647358 -3.849979 -18.731574 27.148428 177.729022 79.197184 -0.760519 16.063005 -62.293989 -63.537958 -46.653279 14.481372 -1.611439 0.088972 7.497442 -37.131381 
328.798378 0.000000 -544.516174 0.000000 131.128345 0.000000 -4.463229 82.384804 0.407640 94.776037 1.092892 -174.105299 163.779453 6.555692 -157.255325 -57.484382 -2.860843 17.577379 94.460423 -9.925847 14.435111 21.454557 0.003101 0.000017 146.730126 -2.734207 147.621056 -29.683483 3.845456 -14.357430 70.874394 13.685000 9.755715 21.454553 -0.003092 0.000000 13.151579 0.932771 -2.563381 16.245077 2.216611 -4.970847 15.928040 2.186445 -4.984109 17.683911 5.982483 32.964009 -22.446889 -23.965906 44.675694 -177.464297 -74.987417 -4.030194 -22.991574 59.009242 1.569763 -62.929190 -20.432525 2.618418 -3.761872 -18.004777 28.138026 -177.294471 78.340829 4.287656 20.961241 -63.189420 -68.788672 -46.132204 13.927408 -1.559158 0.186580 6.203420 -38.031491 
328.494000 0.000000 -546.506417 0.000000 135.705525 0.000000 -3.939400 82.465500 0.679655 95.386015 1.109506 -170.850982 165.361393 6.320405 -152.795853 -57.421100 -2.556125 18.729963 94.748063 -10.779305 14.307999 21.454560 0.003109 0.000017 148.863536 -2.800293 149.052254 -32.471426 2.682774 -13.421101 70.363858 13.202301 10.113310 21.454553 -0.003092 0.000000 12.974947 1.191742 -2.569253 15.882416 2.725244 -4.951427 15.565228 2.695199 -4.967756 18.087850 6.473106 33.620510 -21.960199 -24.326036 45.351216 -177.451388 -75.250004 -4.046907 -25.531845 58.321845 1.654013 -62.516756 -20.352505 2.596426 -3.414507 -16.688201 29.617172 -173.621496 77.416335 8.020865 23.085638 -63.776598 -72.540031 -45.365399 13.671771 -1.519579 0.068471 5.405498 -37.843134 
328.189088 0.000000 -548.439971 0.000000 140.069152 0.000000 -3.528877 82.312767 0.887261 95.519897 1.103881 -168.998109 165.608469 5.419099 -151.429091 -58.438982 -2.302751 19.237994 94.838433 -11.206396 13.903285 21.454560 0.003109 0.000018 149.252993 -3.525499 147.995200 -37.847984 2.884162 -9.407889 74.297281 9.874924 10.348810 21.454551 -0.003090 0.000000 12.795974 1.363890 -2.335265 15.525221 3.029089 -4.467381 15.207708 3.001951 -4.485563 17.617913 5.999713 33.879504 -21.818698 -24.486302 45.632747 -178.109709 -74.945384 -3.369197 -26.625314 57.868402 1.340907 -63.353324 -20.103146 2.612289 -3.541253 -15.428837 31.136117 -174.059803 77.414361 7.573910 23.145486 -64.114303 -74.445449 -44.564218 12.882933 -1.444211 0.310300 5.274576 -38.289050 
327.881749 0.000000 -550.300872 0.000000 144.203520 0.000000 -3.386889 82.414581 1.053085 95.333941 0.992543 -167.573858 164.970502 4.382401 -152.143707 -59.649067 -1.944137 19.282181 93.291942 -11.298220 12.698987 21.454560 0.003113 0.000015 149.459238 -2.832399 150.768230 -40.968246 3.041453 -7.873918 76.451892 8.233483 9.381117 21.454555 -0.003092 0.000000 12.730459 1.523192 -2.120666 15.396085 3.315256 -4.020878 15.078269 3.290802 -4.040809 16.473916 5.315129 33.745338 -21.516691 -24.811523 45.517023 -178.684292 -74.666795 -2.776898 -27.168158 57.956020 -0.030072 -65.037191 -19.570915 2.642771 -3.976088 -15.624409 31.751808 -176.003607 77.779093 5.595856 19.953725 -63.509332 -72.885113 -44.386848 12.733981 -1.429283 0.512636 3.595453 -38.769953 
